<svg width="141" height="30" viewBox="0 0 141 30" fill="none" xmlns="http://www.w3.org/2000/svg">
<path d="M7.58678 24.1727C6.44274 24.1727 5.42916 23.9157 4.54604 23.4018C3.683 22.888 2.99055 22.2405 2.46871 21.4594L2.79988 20.5653V23.8643H0V0H2.76978V14.0288L2.67946 12.9496C3.18123 12.2508 3.89374 11.6855 4.817 11.2539C5.76033 10.8016 6.80401 10.5755 7.94805 10.5755C9.07202 10.5755 10.0956 10.853 11.0189 11.408C11.9421 11.963 12.6747 12.7441 13.2166 13.7513C13.7786 14.7379 14.0596 15.9198 14.0596 17.297C14.0596 18.7359 13.7586 19.9692 13.1564 20.9969C12.5744 22.0247 11.7916 22.816 10.8081 23.371C9.82468 23.9054 8.75088 24.1727 7.58678 24.1727ZM7.01476 21.7369C7.81759 21.7369 8.54014 21.5416 9.18241 21.1511C9.82467 20.7605 10.3264 20.2364 10.6877 19.5786C11.049 18.9003 11.2296 18.1295 11.2296 17.2662C11.2296 16.444 11.039 15.704 10.6576 15.0462C10.2963 14.3679 9.79457 13.8335 9.1523 13.443C8.53011 13.0524 7.81759 12.8571 7.01476 12.8571C6.33235 12.8571 5.70012 12.9907 5.11806 13.258C4.53601 13.5252 4.04427 13.8952 3.64286 14.3679C3.24144 14.8201 2.96045 15.3546 2.79988 15.9712V18.5303C2.96045 19.147 3.2314 19.702 3.61275 20.1953C3.9941 20.668 4.4758 21.0483 5.05785 21.3361C5.63991 21.6033 6.29221 21.7369 7.01476 21.7369Z" fill="black"/>
<path d="M16.7624 17.3587C16.7624 16.0843 17.0534 14.9332 17.6354 13.9054C18.2376 12.8777 19.0605 12.0658 20.1042 11.4697C21.1478 10.8736 22.332 10.5755 23.6567 10.5755C25.0215 10.5755 26.2157 10.8736 27.2393 11.4697C28.263 12.0658 29.0558 12.8777 29.6177 13.9054C30.1797 14.9332 30.4607 16.0843 30.4607 17.3587C30.4607 18.6331 30.1797 19.7944 29.6177 20.8428C29.0558 21.8705 28.2529 22.6824 27.2092 23.2785C26.1856 23.8746 24.9914 24.1727 23.6266 24.1727C22.3019 24.1727 21.1177 23.8952 20.0741 23.3402C19.0504 22.7646 18.2376 21.9733 17.6354 20.9661C17.0534 19.9383 16.7624 18.7359 16.7624 17.3587ZM19.5622 17.3895C19.5622 18.2117 19.7429 18.962 20.1042 19.6403C20.4654 20.298 20.9471 20.8222 21.5493 21.2127C22.1715 21.6033 22.8539 21.7986 23.5965 21.7986C24.3792 21.7986 25.0717 21.6033 25.6738 21.2127C26.296 20.8222 26.7777 20.298 27.1189 19.6403C27.4601 18.962 27.6307 18.2117 27.6307 17.3895C27.6307 16.5673 27.4601 15.8273 27.1189 15.1696C26.7777 14.4913 26.296 13.9568 25.6738 13.5663C25.0717 13.1552 24.3792 12.9496 23.5965 12.9496C22.8338 12.9496 22.1413 13.1552 21.5192 13.5663C20.917 13.9774 20.4353 14.5221 20.0741 15.2004C19.7328 15.8582 19.5622 16.5879 19.5622 17.3895Z" fill="black"/>
<path d="M36.7506 11.0997L37.0215 14.7996L36.871 14.3063C37.1921 13.5252 37.6538 12.8674 38.2559 12.333C38.8781 11.778 39.5203 11.3566 40.1827 11.0689C40.8651 10.7605 41.4572 10.6064 41.9589 10.6064L41.8084 13.443C40.8651 13.3813 40.0321 13.5663 39.3096 13.9979C38.6071 14.4296 38.0451 15.0051 37.6236 15.7246C37.2222 16.444 37.0215 17.2148 37.0215 18.037V23.8643H34.2517V11.0997H36.7506Z" fill="black"/>
<path d="M43.958 17.3587C43.958 16.0843 44.249 14.9332 44.831 13.9054C45.4332 12.8777 46.2561 12.0658 47.2997 11.4697C48.3434 10.8736 49.5276 10.5755 50.8523 10.5755C52.2171 10.5755 53.4113 10.8736 54.4349 11.4697C55.4585 12.0658 56.2513 12.8777 56.8133 13.9054C57.3753 14.9332 57.6563 16.0843 57.6563 17.3587C57.6563 18.6331 57.3753 19.7944 56.8133 20.8428C56.2513 21.8705 55.4485 22.6824 54.4048 23.2785C53.3812 23.8746 52.187 24.1727 50.8222 24.1727C49.4975 24.1727 48.3133 23.8952 47.2696 23.3402C46.246 22.7646 45.4332 21.9733 44.831 20.9661C44.249 19.9383 43.958 18.7359 43.958 17.3587ZM46.7578 17.3895C46.7578 18.2117 46.9385 18.962 47.2997 19.6403C47.661 20.298 48.1427 20.8222 48.7448 21.2127C49.367 21.6033 50.0495 21.7986 50.7921 21.7986C51.5748 21.7986 52.2673 21.6033 52.8694 21.2127C53.4916 20.8222 53.9733 20.298 54.3145 19.6403C54.6557 18.962 54.8263 18.2117 54.8263 17.3895C54.8263 16.5673 54.6557 15.8273 54.3145 15.1696C53.9733 14.4913 53.4916 13.9568 52.8694 13.5663C52.2673 13.1552 51.5748 12.9496 50.7921 12.9496C50.0294 12.9496 49.3369 13.1552 48.7147 13.5663C48.1126 13.9774 47.6309 14.5221 47.2696 15.2004C46.9284 15.8582 46.7578 16.5879 46.7578 17.3895Z" fill="black"/>
<path d="M66.123 24.2343L59.1985 11.0997H62.5102L67.2068 21.2436L65.4908 21.1819L69.7959 11.0997H72.927L66.2735 24.2343H66.123Z" fill="black"/>
<path d="M75.9419 11.0997H78.7417V23.8643H75.9419V11.0997Z" fill="black"/>
<path d="M88.5837 24.1727C87.4798 24.1727 86.4662 23.8952 85.5429 23.3402C84.6197 22.7852 83.877 22.0144 83.3151 21.0277C82.7732 20.0206 82.5022 18.8386 82.5022 17.482C82.5022 16.0843 82.7932 14.8715 83.3753 13.8438C83.9774 12.816 84.7702 12.0144 85.7537 11.4388C86.7572 10.8633 87.8511 10.5755 89.0353 10.5755C90.1592 10.5755 91.1527 10.8325 92.0158 11.3464C92.8788 11.8397 93.5713 12.4872 94.0931 13.2888L93.7619 14.1829V10.9147H96.5618V30H93.792V20.5961L93.9125 21.7986C93.4308 22.4974 92.7183 23.073 91.7749 23.5252C90.8316 23.9568 89.7678 24.1727 88.5837 24.1727ZM89.517 21.8911C90.2395 21.8911 90.9018 21.7472 91.504 21.4594C92.1061 21.1716 92.5978 20.7811 92.9792 20.2878C93.3806 19.7739 93.6415 19.1881 93.7619 18.5303V16.372C93.6014 15.7143 93.3304 15.1387 92.9491 14.6454C92.5677 14.1316 92.086 13.7307 91.504 13.443C90.9219 13.1552 90.2596 13.0113 89.517 13.0113C88.7743 13.0113 88.0819 13.2066 87.4396 13.5971C86.7973 13.9877 86.2855 14.5221 85.9042 15.2004C85.5229 15.8787 85.3322 16.6393 85.3322 17.482C85.3322 18.3248 85.5229 19.075 85.9042 19.7328C86.2855 20.3905 86.7973 20.9147 87.4396 21.3052C88.0819 21.6958 88.7743 21.8911 89.517 21.8911Z" fill="black"/>
<path d="M105.376 24.3577C104.252 24.3577 103.319 24.0082 102.576 23.3094C101.854 22.5899 101.472 21.665 101.432 20.5344V11.0997H104.232V19.517C104.272 20.2158 104.463 20.7811 104.804 21.2127C105.165 21.6444 105.727 21.8705 106.49 21.8911C107.193 21.8911 107.815 21.6855 108.357 21.2744C108.919 20.8428 109.37 20.2672 109.711 19.5478C110.053 18.8078 110.223 17.9753 110.223 17.0504V11.0997H113.023V23.8643H110.464L110.223 20.7194L110.374 21.2744C110.133 21.8705 109.762 22.4049 109.26 22.8777C108.778 23.3299 108.206 23.6896 107.544 23.9568C106.881 24.224 106.159 24.3577 105.376 24.3577Z" fill="black"/>
<path d="M123.648 24.1727C122.223 24.1727 120.998 23.8849 119.975 23.3094C118.951 22.7133 118.158 21.9116 117.596 20.9044C117.054 19.8767 116.783 18.705 116.783 17.3895C116.783 16.1357 117.094 14.9949 117.717 13.9671C118.339 12.9394 119.172 12.1172 120.215 11.5005C121.259 10.8839 122.423 10.5755 123.708 10.5755C125.354 10.5755 126.718 11.0689 127.802 12.0555C128.886 13.0421 129.619 14.3988 130 16.1254L119.734 19.8253L119.071 18.1295L127.501 14.9846L126.899 15.3854C126.658 14.7071 126.257 14.1213 125.695 13.628C125.133 13.1141 124.4 12.8571 123.497 12.8571C122.734 12.8571 122.052 13.0524 121.45 13.443C120.848 13.8129 120.376 14.3268 120.035 14.9846C119.694 15.6423 119.523 16.3926 119.523 17.2354C119.523 18.1192 119.704 18.9003 120.065 19.5786C120.426 20.2364 120.918 20.7605 121.54 21.1511C122.182 21.5211 122.905 21.7061 123.708 21.7061C124.25 21.7061 124.772 21.6033 125.273 21.3977C125.795 21.1922 126.277 20.925 126.718 20.5961L128.013 22.7235C127.391 23.1552 126.688 23.5046 125.906 23.7718C125.143 24.0391 124.39 24.1727 123.648 24.1727Z" fill="black"/>
<circle cx="77.5" cy="4.5" r="3.5" fill="#ED3F68"/>
<ellipse cx="137.462" cy="21.4722" rx="3.46161" ry="3.4722" fill="#ED3F68"/>
</svg>
